<?xml version="1.0" encoding="UTF-8" standalone="no"?>
<!-- Created with Inkscape (http://www.inkscape.org/) -->

<svg
   xmlns:dc="http://purl.org/dc/elements/1.1/"
   xmlns:cc="http://creativecommons.org/ns#"
   xmlns:rdf="http://www.w3.org/1999/02/22-rdf-syntax-ns#"
   xmlns:svg="http://www.w3.org/2000/svg"
   xmlns="http://www.w3.org/2000/svg"
   xmlns:sodipodi="http://sodipodi.sourceforge.net/DTD/sodipodi-0.dtd"
   xmlns:inkscape="http://www.inkscape.org/namespaces/inkscape"
   version="1.1"
   id="svg3778"
   width="1920"
   height="1080"
   viewBox="0 0 1920 1080"
   sodipodi:docname="tart.svg"
   inkscape:version="0.92.3 (2405546, 2018-03-11)">
  <metadata
     id="metadata3784">
    <rdf:RDF>
      <cc:Work
         rdf:about="">
        <dc:format>image/svg+xml</dc:format>
        <dc:type
           rdf:resource="http://purl.org/dc/dcmitype/StillImage" />
        <dc:title></dc:title>
      </cc:Work>
    </rdf:RDF>
  </metadata>
  <defs
     id="defs3782" />
  <sodipodi:namedview
     pagecolor="#ffffff"
     bordercolor="#666666"
     borderopacity="1"
     objecttolerance="10"
     gridtolerance="10"
     guidetolerance="10"
     inkscape:pageopacity="0"
     inkscape:pageshadow="2"
     inkscape:window-width="1366"
     inkscape:window-height="684"
     id="namedview3780"
     showgrid="false"
     inkscape:zoom="0.93148148"
     inkscape:cx="1011.4313"
     inkscape:cy="348.58398"
     inkscape:window-x="0"
     inkscape:window-y="28"
     inkscape:window-maximized="1"
     inkscape:current-layer="svg3778" />
  <path
     style="fill:#000000"
     d="m 983.61824,634.72163 c 0,-0.55 2.475,-1 5.5,-1 3.025,0 5.5,0.45 5.5,1 0,0.55 -2.475,1 -5.5,1 -3.025,0 -5.5,-0.45 -5.5,-1 z m -5.99995,-0.9166 c 0,-0.5042 0.5625,-1.1437 1.25,-1.4211 0.6875,-0.2774 0.2375,-0.5399 -1,-0.5833 -1.2375,-0.043 -2.25,0.371 -2.25,0.921 0,0.55 -0.49814,1 -1.10699,1 -0.60884,0 -0.84797,-0.675 -0.53138,-1.5 0.31658,-0.825 0.13972,-1.5 -0.39301,-1.5 -0.53274,0 -0.96862,0.45 -0.96862,1 0,0.55 -0.49814,1 -1.10699,1 -0.60884,0 -0.87282,-0.6102 -0.58661,-1.356 0.32083,-0.8361 -0.77168,-1.9723 -2.84898,-2.9629 -4.37747,-2.0874 -10.85609,-7.972 -13.51714,-12.2777 -1.15687,-1.8718 -2.6292,-3.3965 -3.27184,-3.388 -0.67069,0.01 -0.52945,0.4282 0.33156,0.9846 0.94229,0.609 1.04832,0.9751 0.28518,0.9847 -0.66815,0.01 -1.68065,-0.8551 -2.25,-1.9189 -1.30742,-2.443 -1.30258,-3.0658 0.0238,-3.0658 0.58246,0 0.7809,0.45 0.44098,1 -0.33992,0.55 -0.10398,1 0.52432,1 0.62829,0 0.90909,-0.5625 0.62399,-1.25 -0.2851,-0.6875 -1.05769,-2.9003 -1.71687,-4.9173 -0.78934,-2.4154 -1.66501,-3.4884 -2.56497,-3.143 -0.75156,0.2884 -1.36647,0.026 -1.36647,-0.5827 0,-0.6088 0.45,-1.107 1,-1.107 0.55,0 1,-1.211 1,-2.6911 0,-2.5809 -0.0601,-2.6116 -1.4682,-0.75 -1.43146,1.8926 -1.46899,1.8849 -1.5,-0.3089 -0.0175,-1.2375 0.4182,-2.25 0.9682,-2.25 0.59649,0 1,-3.8333 1,-9.5 0,-5.6666 -0.40351,-9.5 -1,-9.5 -0.55,0 -1,-0.675 -1,-1.5 0,-1.8163 1.63514,-1.9911 2.33772,-0.25 0.27741,0.6875 0.53991,0.2375 0.58333,-1 0.0434,-1.2375 -0.37105,-2.25 -0.92105,-2.25 -0.55,0 -1,-0.7301 -1,-1.6224 0,-1.2405 0.31461,-1.3613 1.33633,-0.5134 1.05503,0.8756 1.57808,0.3225 2.48479,-2.6275 0.73341,-2.3863 0.79256,-3.8571 0.16367,-4.07 -0.54163,-0.1833 -0.98479,-0.7317 -0.98479,-1.2186 0,-0.4869 0.7875,-0.5902 1.75,-0.2294 1.53249,0.5743 1.57942,0.4461 0.37756,-1.0314 -0.894,-1.0991 -0.98115,-1.6873 -0.25,-1.6873 0.61734,0 1.00994,-0.5062 0.87244,-1.125 -0.1375,-0.6187 0.425,-1.328 1.25,-1.5761 0.88969,-0.2676 1.09312,-0.115 0.5,0.375 -0.55,0.4544 -1.10529,1.5011 -1.23398,2.3261 -0.14907,0.9557 0.21386,0.7904 1,-0.4553 2.80792,-4.4493 11.54093,-12.957 15.821,-15.4127 3.04914,-1.7496 4.4195,-3.1349 4.08737,-4.132 -0.40343,-1.2111 -0.21761,-1.2673 0.96502,-0.2918 1.90708,1.5731 5.903,0.5659 5.1844,-1.3067 -0.29578,-0.7708 -0.0396,-1.4015 0.5692,-1.4015 0.60885,0 1.10699,0.45 1.10699,1 0,0.55 1.01249,0.9645 2.24999,0.9211 1.2375,-0.043 1.6875,-0.3059 1,-0.5833 -1.7412,-0.7026 -1.5663,-2.3378 0.25,-2.3378 0.825,0 1.5,0.45 1.5,1 0,0.5926 3.6667,1 9,1 5.3333,0 8.99996,-0.4074 8.99996,-1 0,-0.55 0.7231,-1 1.607,-1 1.0176,0 1.3958,0.5502 1.0314,1.5 -0.645,1.6808 1.8612,2.1187 2.8616,0.5 0.3399,-0.55 1.0966,-1 1.6814,-1 0.6706,0 0.6036,0.5542 -0.1814,1.5 -1.0037,1.2094 -0.979,1.5019 0.1275,1.5098 2.528,0.018 11.4648,4.6934 15.1411,7.9212 2.0007,1.7567 4.9298,5.7797 6.5091,8.94 1.5792,3.1603 3.4003,5.5697 4.0468,5.3542 0.6465,-0.2155 1.1755,0.096 1.1755,0.6915 0,0.5958 -0.45,1.0833 -1,1.0833 -0.55,0 -1,0.7301 -1,1.6225 0,1.3639 0.2513,1.4139 1.5768,0.3138 1.3915,-1.1548 1.5316,-0.9123 1.1917,2.0636 -0.3505,3.0694 -2.7685,5.711 -2.7685,3.0245 0,-0.6309 0.5597,-0.8203 1.25,-0.423 0.6875,0.3956 0.9571,0.3917 0.599,-0.01 -0.358,-0.4004 -5.8133,-0.8101 -12.1229,-0.9104 -8.8246,-0.1402 -11.3612,0.1061 -10.992,1.0677 0.2639,0.6875 -0.045,1.25 -0.6861,1.25 -0.6413,0 -0.8879,-0.45 -0.548,-1 0.3399,-0.55 0.029,-1.0069 -0.691,-1.0153 -1.0426,-0.012 -1.0328,-0.1904 0.048,-0.8752 2.0107,-1.2741 0.5256,-5.1891 -1.6582,-4.3713 -1.4389,0.5389 -1.5031,0.3952 -0.4192,-0.9391 1.0706,-1.3181 0.8698,-2.0623 -1.2298,-4.5575 -3.0006,-3.5661 -8.7027,-6.2828 -9.31726,-4.4392 -0.2195,0.6587 -1.3742,1.1833 -2.5658,1.1658 -2.1203,-0.031 -2.1252,-0.063 -0.2256,-1.5 1.787,-1.3516 1.5487,-1.459 -3,-1.3522 -2.7176,0.064 -4.1536,0.3218 -3.1911,0.5733 2.3956,0.6261 2.2134,2.3107 -0.25,2.3107 -1.1,0 -2,-0.45 -2,-1 0,-0.55 -0.4359,-1 -0.9686,-1 -0.5328,0 -0.7096,0.675 -0.393,1.5 0.3166,0.825 0.078,1.5 -0.5314,1.5 -0.6089,3e-4 -1.107,-0.4497 -1.107,-0.9997 0,-2.9971 -7.49543,2.8295 -11.06066,8.5982 -1.82498,2.9529 -1.9402,3.7008 -0.78834,5.1173 1.16756,1.4359 1.12263,1.5742 -0.33407,1.0288 -1.28697,-0.4818 -1.84597,0.1115 -2.3752,2.5211 -0.44273,2.0157 -0.28669,3.2863 0.43308,3.5262 1.34797,0.4494 1.52862,6.2084 0.19475,6.2084 -0.51175,0 -1.12546,-1.0125 -1.36382,-2.25 -0.23835,-1.2375 -0.46612,1.35 -0.50616,5.75 -0.061,6.7021 0.10964,7.5944 1.05163,5.5 l 1.12443,-2.5 0.39991,2.9708 c 0.21995,1.6339 -0.0896,3.1339 -0.68782,3.3333 -0.59824,0.1995 -1.08083,1.3376 -1.07241,2.5293 0.0122,1.7257 0.20463,1.8673 0.94563,0.6956 0.51167,-0.8091 1.26228,-1.1391 1.66802,-0.7333 0.40574,0.4057 0.20521,1.2702 -0.44563,1.921 -1.65132,1.6513 -1.47683,2.8332 0.31667,2.145 0.825,-0.3166 1.5,-0.115 1.5,0.448 0,0.563 -0.54093,1.204 -1.20206,1.4244 -1.6309,0.5436 3.34411,8.9738 6.52632,11.0588 1.86493,1.222 2.69463,1.3101 3.68813,0.3919 1.0124,-0.9356 1.1566,-0.8276 0.6858,0.5141 -0.4098,1.1678 0.077,1.9125 1.5586,2.3826 1.2863,0.4083 2.3069,0.2274 2.5323,-0.4488 0.2076,-0.6229 1.3526,-1.1183 2.5442,-1.1009 2.1203,0.031 2.1251,0.063 0.2256,1.5 -1.7922,1.3556 -1.5664,1.4682 2.9411,1.4682 4.5075,0 4.7333,-0.1126 2.9411,-1.4682 -1.8926,-1.4314 -1.8848,-1.4689 0.3089,-1.5 1.2375,-0.018 2.25,0.4182 2.25,0.9682 0,3.6003 9.06526,-2.5488 12.56726,-8.5246 2.6136,-4.4598 2.7562,-9.1989 0.1999,-6.6426 -1.5725,1.5725 -15.98886,1.5456 -17.56716,-0.033 -1.5342,-1.5342 -1.663,-17.8 -0.141,-17.8 0.5825,0 0.7414,-0.5625 0.3533,-1.25 -0.5646,-1 -0.4364,-1 0.641,0 0.9797,0.9094 6.55156,1.25 20.44666,1.25 13.8951,0 19.467,-0.3406 20.4467,-1.25 1.0774,-1 1.2056,-1 0.641,0 -0.3882,0.6875 -0.2292,1.25 0.3533,1.25 1.5898,0 1.4533,48.2057 -0.141,49.8 -0.7489,0.749 -4.4617,1.2 -9.8776,1.2 -6.8736,0 -8.9628,-0.3456 -10.05,-1.6626 -1.0699,-1.2962 -1.0969,-1.7553 -0.1224,-2.0833 0.6875,-0.2314 1.2145,-1.6207 1.171,-3.0874 -0.043,-1.4667 -0.3059,-2.1042 -0.5833,-1.4167 -0.7026,1.7412 -2.3377,1.5664 -2.3377,-0.25 0,-0.825 0.45,-1.5 1,-1.5 1.5121,0 1.1976,-3.5911 -0.4331,-4.9444 -1.1551,-0.9587 -1.76,-0.6905 -3.1183,1.3825 -1.4378,2.1944 -1.4843,2.8153 -0.3169,4.2296 1.1708,1.4183 1.1532,1.5865 -0.1216,1.165 -0.8194,-0.2709 -2.2936,0.5293 -3.276,1.7783 -0.9825,1.249 -2.6516,2.5455 -3.7092,2.8811 -1.1585,0.3677 -1.7019,1.1862 -1.3669,2.0591 0.3058,0.7969 0.058,1.4488 -0.551,1.4488 -0.6089,0 -1.107,-0.45 -1.107,-1 0,-0.55 -0.7301,-1 -1.6225,-1 -1.32876,0 -1.39706,0.2715 -0.3775,1.5 1.0196,1.2286 0.9512,1.5 -0.3776,1.5 -0.89226,0 -1.62236,-0.45 -1.62236,-1 0,-0.5925 -3.6667,-1 -9,-1 -5.3333,0 -8.99999,0.4075 -8.99999,1 0,0.55 -0.675,1 -1.5,1 -0.825,0 -1.5,-0.4125 -1.5,-0.9166 z m 59.00101,-26.7368 -0.499,-24.8466 -0.2688,24.25 -0.2689,24.25 -8.7322,0.189 -8.7322,0.189 9,0.561 c 4.95,0.3086 9.225,0.492 9.5,0.4076 0.275,-0.084 0.2755,-11.3344 0,-25 z m -32.7511,-8.133 -7.24996,-0.3012 -0.1863,-8.2062 -0.1863,-8.2062 -0.5637,8.5 c -0.31,4.675 -0.4955,8.725 -0.4122,9 0.083,0.275 3.6833,0.2783 7.99996,0.01 l 7.8485,-0.4926 -7.25,-0.3012 z m -316.24991,33.7274 c 0,-0.5824 -0.5625,-0.7414 -1.25,-0.3533 -1,0.5646 -1,0.4364 0,-0.641 1.84983,-1.9929 1.80727,-75.2393 -0.0446,-76.7762 -1.85439,-1.539 -31.29819,-1.6973 -30.93061,-0.1663 0.15112,0.6295 -0.18638,0.8595 -0.75,0.5112 -0.57754,-0.357 -1.02479,-4.5822 -1.02479,-9.6814 0,-7.8397 0.21123,-8.9669 1.58179,-8.4409 0.86998,0.3338 20.66998,0.6069 44,0.6069 h 42.41821 v 7.9167 c 0,4.4635 0.44219,8.0621 1.01375,8.25 0.55757,0.1833 -6.0618,0.1878 -14.70971,0.01 -14.09558,-0.2899 -15.85705,-0.1407 -17.01375,1.4411 -0.99839,1.3653 -1.29029,10.0917 -1.29029,38.5734 v 36.8088 h -11.16667 c -6.14166,0 -10.96767,0.199 -10.72446,0.4422 0.24321,0.2433 5.51419,0.523 11.71329,0.6216 l 11.27109,0.1794 -0.0691,-37.6216 c -0.0484,-26.3474 0.25495,-37.6216 1.01236,-37.6216 0.59484,0 0.87213,-0.3375 0.6162,-0.75 -0.25592,-0.4125 4.55502,-0.6262 10.69099,-0.475 17.72751,0.4368 19.34615,0.8748 3.9063,1.0569 l -14.25,0.1681 v 37.3 c 0,27.6778 -0.30956,37.6096 -1.2,38.5 -1.55876,1.5588 -23.8,1.6906 -23.8,0.141 z m 55.53454,0.1149 c -0.35682,-0.5773 4.47628,-0.8687 12.44128,-0.75 7.16362,0.1068 13.02463,-0.1434 13.02447,-0.5559 -1.6e-4,-0.4125 -5.13849,-0.75 -11.4185,-0.75 -11.65449,0 -14.58179,-0.4444 -14.58179,-2.2139 0,-0.55 0.64052,-0.7542 1.42337,-0.4538 2.092,0.8027 4.00688,-5.0973 2.32622,-7.1675 -1.05101,-1.2946 -0.97148,-1.435 0.50041,-0.8834 0.9625,0.3607 1.75,0.22 1.75,-0.3127 0,-0.5328 -0.45,-0.9687 -1,-0.9687 -0.55,0 -1,-0.4981 -1,-1.1069 0,-0.6089 0.64052,-0.8612 1.42337,-0.5608 2.092,0.8027 4.00688,-5.0973 2.32622,-7.1675 -1.05101,-1.2946 -0.97148,-1.435 0.50041,-0.8834 0.9625,0.3607 1.75,0.22 1.75,-0.3127 0,-0.5328 -0.45,-0.9687 -1,-0.9687 -0.55,0 -1,-0.4981 -1,-1.1069 0,-0.6089 0.64185,-0.8607 1.42632,-0.5597 1.00064,0.384 1.90256,-0.8503 3.02199,-4.1357 1.01033,-2.9651 1.22077,-4.808 0.57368,-5.0237 -0.5621,-0.1873 -1.02199,-0.8013 -1.02199,-1.3643 0,-0.563 0.675,-0.7646 1.5,-0.448 0.825,0.3166 1.5,0.1397 1.5,-0.393 0,-0.5328 -0.45,-0.9687 -1,-0.9687 -0.55,0 -1,-0.4981 -1,-1.1069 0,-0.6089 0.64052,-0.8612 1.42337,-0.5608 2.092,0.8027 4.00688,-5.0973 2.32622,-7.1675 -1.05101,-1.2946 -0.97148,-1.435 0.50041,-0.8834 0.9625,0.3607 1.75,0.22 1.75,-0.3127 0,-0.5328 -0.45,-0.9687 -1,-0.9687 -0.55,0 -1,-0.4981 -1,-1.1069 0,-0.6089 0.64052,-0.8612 1.42337,-0.5608 2.092,0.8027 4.00688,-5.0973 2.32622,-7.1675 -1.05101,-1.2946 -0.97148,-1.435 0.50041,-0.8834 0.9625,0.3607 1.75,0.22 1.75,-0.3127 0,-0.5328 -0.45,-0.9687 -1,-0.9687 -0.55,0 -1,-0.4981 -1,-1.1069 0,-0.6089 0.64185,-0.8607 1.42632,-0.5597 1.00064,0.384 1.90256,-0.8503 3.02199,-4.1357 1.01033,-2.9651 1.22077,-4.808 0.57368,-5.0237 -0.5621,-0.1873 -1.02199,-0.8013 -1.02199,-1.3643 0,-0.563 0.64185,-0.7773 1.42632,-0.4763 1.00064,0.384 1.90256,-0.8503 3.02199,-4.1357 1.01033,-2.9651 1.22077,-4.808 0.57368,-5.0237 -0.5621,-0.1873 -1.02199,-0.8013 -1.02199,-1.3643 0,-0.563 0.675,-0.7646 1.5,-0.448 0.825,0.3166 1.5,0.1397 1.5,-0.393 0,-0.5328 -0.45,-0.9687 -1,-0.9687 -0.55,0 -1,-0.4981 -1,-1.1069 0,-0.6089 0.64052,-0.8612 1.42337,-0.5608 1.83136,0.7027 4.03787,-5.0716 2.60001,-6.8041 -2.27786,-2.7446 1.28739,-3.5282 16.05418,-3.5282 12.56165,0 14.8754,0.2433 16.05,1.6873 1.19865,1.4736 1.15578,1.6061 -0.33858,1.0463 -2.20259,-0.825 -30.7287,-1.1272 -31.52198,-0.3339 -0.33018,0.3302 6.44967,0.6003 15.06633,0.6003 9.43936,0 15.66667,0.3851 15.66667,0.9687 0,0.5327 0.675,0.7096 1.5,0.393 0.825,-0.3166 1.5,-0.115 1.5,0.448 0,0.563 -0.45989,1.177 -1.02199,1.3643 -0.64709,0.2157 -0.43665,2.0586 0.57368,5.0237 1.11943,3.2854 2.02135,4.5197 3.02199,4.1357 0.78447,-0.301 1.42632,-0.049 1.42632,0.5597 0,0.6088 -0.45,1.1069 -1,1.1069 -0.55,0 -1,0.4359 -1,0.9687 0,0.5327 0.7875,0.6734 1.75,0.3127 1.47189,-0.5516 1.55142,-0.4112 0.50041,0.8834 -1.68066,2.0702 0.23422,7.9702 2.32622,7.1675 0.78285,-0.3004 1.42337,-0.048 1.42337,0.5608 0,0.6088 -0.45,1.1069 -1,1.1069 -0.55,0 -1,0.4359 -1,0.9687 0,0.5327 0.7875,0.6734 1.75,0.3127 1.47189,-0.5516 1.55142,-0.4112 0.50041,0.8834 -1.68066,2.0702 0.23422,7.9702 2.32622,7.1675 0.78285,-0.3004 1.42337,-0.048 1.42337,0.5608 0,0.6088 -0.45,1.1069 -1,1.1069 -0.55,0 -1,0.4359 -1,0.9687 0,0.5327 0.675,0.7096 1.5,0.393 0.825,-0.3166 1.5,-0.115 1.5,0.448 0,0.563 -0.45989,1.177 -1.02199,1.3643 -0.64709,0.2157 -0.43665,2.0586 0.57368,5.0237 1.11943,3.2854 2.02135,4.5197 3.02199,4.1357 0.78447,-0.301 1.42632,-0.087 1.42632,0.4763 0,0.563 -0.45989,1.177 -1.02199,1.3643 -0.64709,0.2157 -0.43665,2.0586 0.57368,5.0237 1.11943,3.2854 2.02135,4.5197 3.02199,4.1357 0.78447,-0.301 1.42632,-0.049 1.42632,0.5597 0,0.6088 -0.45,1.1069 -1,1.1069 -0.55,0 -1,0.4359 -1,0.9687 0,0.5327 0.7875,0.6734 1.75,0.3127 1.47189,-0.5516 1.55142,-0.4112 0.50041,0.8834 -1.68066,2.0702 0.23422,7.9702 2.32622,7.1675 0.78285,-0.3004 1.42337,-0.048 1.42337,0.5608 0,0.6088 -0.45,1.1069 -1,1.1069 -0.55,0 -1,0.4359 -1,0.9687 0,0.5327 0.7875,0.6734 1.75,0.3127 1.47189,-0.5516 1.55142,-0.4112 0.50041,0.8834 -1.68066,2.0702 0.23422,7.9702 2.32622,7.1675 0.78285,-0.3004 1.42337,-0.048 1.42337,0.5608 0,0.6088 -0.45,1.1069 -1,1.1069 -0.55,0 -1,0.4359 -1,0.9687 0,0.5327 0.675,0.7096 1.5,0.393 0.825,-0.3166 1.5,-0.078 1.5,0.5314 0,0.6088 -0.48032,1.1069 -1.06739,1.1069 -0.97186,0 -0.74483,1.6085 0.81161,5.75 0.35958,0.9569 -2.35536,1.25 -11.57521,1.25 h -12.04496 l -2.73616,-8.4017 c -2.14301,-6.5805 -3.07778,-8.2828 -4.31203,-7.8529 -1.27921,0.4457 -1.34055,0.2954 -0.32586,-0.7982 1.78421,-1.9229 1.54379,-2.9945 -0.5,-2.2285 -1.51569,0.568 -1.57111,0.4358 -0.41391,-0.9876 0.73485,-0.9039 1.04579,-2.1132 0.69098,-2.6873 -0.83881,-1.3572 -2.52707,-1.347 -2.52707,0.015 0,0.5825 0.5625,0.7354 1.25,0.3397 0.6875,-0.3956 0.94119,-0.3759 0.56376,0.044 -0.98229,1.0925 -29.00127,0.6467 -30.36258,-0.4831 -1.68035,-1.3945 -2.63273,0.1115 -1.1925,1.8858 1.04086,1.2822 0.95872,1.4233 -0.50868,0.8734 -0.9625,-0.3608 -1.75,-0.22 -1.75,0.3127 0,0.5328 0.45,0.9686 1,0.9686 0.55,0 1,0.4982 1,1.107 0,0.6089 -0.675,0.848 -1.5,0.5314 -0.825,-0.3166 -1.5,-0.1397 -1.5,0.393 0,0.5328 0.45,0.9686 1,0.9686 0.55,0 1,0.4982 1,1.107 0,0.6089 -0.675,0.848 -1.5,0.5314 -0.825,-0.3166 -1.5,-0.1397 -1.5,0.393 0,0.5328 0.45,0.9686 1,0.9686 0.55,0 1,0.4982 1,1.107 0,0.6089 -0.675,0.848 -1.5,0.5314 -0.825,-0.3166 -1.5,-0.1397 -1.5,0.393 0,0.5328 0.45,0.9686 1,0.9686 0.55,0 1,0.4982 1,1.107 0,0.6089 -0.675,0.848 -1.5,0.5314 -0.825,-0.3166 -1.5,-0.1397 -1.5,0.393 0,0.5328 0.45,0.9686 1,0.9686 0.55,0 1,0.4982 1,1.107 0,0.6089 -0.675,0.848 -1.5,0.5314 -0.825,-0.3166 -1.5,-0.1397 -1.5,0.393 0,0.5328 0.45,0.9686 1,0.9686 0.55,0 1,0.4982 1,1.107 0,0.6089 -0.675,0.848 -1.5,0.5314 -1.69431,-0.6502 -2.06319,0.8955 -0.45144,1.8916 0.7168,0.4431 0.67806,1.0945 -0.12245,2.0591 -0.89208,1.0749 -4.10513,1.4109 -13.48954,1.4109 -6.77519,0 -12.58111,-0.4248 -12.90203,-0.9441 z m 56.21546,-26.7974 c -3.7125,-0.1924 -9.7875,-0.1924 -13.5,0 -3.7125,0.1924 -0.675,0.3498 6.75,0.3498 7.425,0 10.4625,-0.1574 6.75,-0.3498 z m 1.66821,-16.8654 c 0.86999,-0.3339 1.52959,-1.5714 1.46579,-2.75 -0.0925,-1.7086 -0.20918,-1.7858 -0.57568,-0.3808 -0.25283,0.9692 -0.94516,1.4622 -1.53851,1.0955 -0.6414,-0.3964 -0.78952,-0.1987 -0.3653,0.4877 0.39244,0.635 0.23697,1.1545 -0.34549,1.1545 -1.46877,0 -1.32287,-1.2688 0.40918,-3.5588 1.89963,-2.5116 1.91112,-3.5239 0.0318,-2.8028 -0.825,0.3166 -1.5,0.115 -1.5,-0.448 0,-0.563 0.49707,-1.1894 1.1046,-1.3919 0.79307,-0.2643 0.75541,-1.5337 -0.13353,-4.5007 -0.83636,-2.7915 -1.68155,-3.9623 -2.6046,-3.6081 -0.75156,0.2884 -1.36647,0.064 -1.36647,-0.4993 0,-0.563 0.49707,-1.1894 1.1046,-1.3919 0.79113,-0.2637 0.74682,-1.5623 -0.15615,-4.5762 -0.93152,-3.1091 -1.57703,-3.9455 -2.47192,-3.2028 -0.83247,0.6909 -1.56262,0.5817 -2.33518,-0.3491 -1.17677,-1.418 -0.57002,-2.6811 1.27532,-2.655 0.59583,0.01 0.40833,0.4926 -0.41667,1.0761 -1.22006,0.8628 -1.23172,0.9883 -0.0625,0.6722 2.26843,-0.6133 2.44444,-2.7637 0.2262,-2.7637 -1.52578,0 -2.41452,1.2391 -3.73045,5.201 -1.23211,3.7095 -1.39853,5.3106 -0.58037,5.5833 0.63092,0.2103 1.14712,0.8431 1.14712,1.4061 0,0.563 -0.675,0.7646 -1.5,0.448 -1.82434,-0.7 -1.95158,0.475 -0.25,2.3088 1.01754,1.0967 0.94161,1.2392 -0.4083,0.7666 -1.196,-0.4187 -1.8443,0.1605 -2.32548,2.0777 -0.39785,1.5851 -0.23302,2.8029 0.4083,3.0167 0.59151,0.1972 1.07548,0.8192 1.07548,1.3822 0,0.563 -0.675,0.7646 -1.5,0.448 -1.82434,-0.7 -1.95158,0.475 -0.25,2.3088 1.0204,1.0998 0.92856,1.2341 -0.5,0.7314 -1.33819,-0.4709 -1.75,-0.074 -1.75,1.6862 0,1.266 0.3,2.6019 0.66667,2.9686 0.83345,0.8334 15.60569,0.8831 17.75154,0.06 z m -16.90813,-1.3767 c -0.34546,-0.559 0.0734,-1.0164 0.9309,-1.0164 1.75653,0 2.01516,0.6001 0.62812,1.4573 -0.512,0.3165 -1.21356,0.118 -1.55902,-0.4409 z m 13.48992,-9.0164 c 0,-0.55 0.45,-1 1,-1 0.55,0 1,0.45 1,1 0,0.55 -0.45,1 -1,1 -0.55,0 -1,-0.45 -1,-1 z m -12,-1 c 0,-0.55 0.45,-1 1,-1 0.55,0 1,0.45 1,1 0,0.55 -0.45,1 -1,1 -0.55,0 -1,-0.45 -1,-1 z m 9,-9 c 0,-0.55 0.45,-1 1,-1 0.55,0 1,0.45 1,1 0,0.55 -0.45,1 -1,1 -0.55,0 -1,-0.45 -1,-1 z m -6,-1 c 0,-0.55 0.45,-1 1,-1 0.55,0 1,0.45 1,1 0,0.55 -0.45,1 -1,1 -0.55,0 -1,-0.45 -1,-1 z m 5,-1.9409 c 0,-0.5825 0.45,-1.0591 1,-1.0591 0.55,0 1,0.1985 1,0.441 0,0.2426 -0.45,0.7191 -1,1.059 -0.55,0.34 -1,0.1415 -1,-0.4409 z m 23,66.8819 c 0,-0.5824 -0.5625,-0.7353 -1.25,-0.3396 -0.6875,0.3956 -0.93869,0.3733 -0.55821,-0.049 0.38049,-0.4229 6.52329,-0.6984 13.65067,-0.6124 9.83089,0.1187 13.07049,-0.1568 13.4213,-1.1415 0.25434,-0.7139 0.80261,-0.9819 1.21838,-0.5956 0.41578,0.3863 0.0595,1.3988 -0.79166,2.25 -1.22589,1.2258 -4.05715,1.5475 -13.61905,1.5475 -7.82943,0 -12.07143,-0.3721 -12.07143,-1.059 z m 37,0.059 c 0,-0.6087 4.5,-1 11.5,-1 7,0 11.5,0.3913 11.5,1 0,0.6087 -4.5,1 -11.5,1 -7,0 -11.5,-0.3913 -11.5,-1 z m 54.03276,-0.7284 c -1.31055,-1.4758 -1.27512,-1.5786 0.33178,-0.9619 0.98947,0.3797 7.16223,0.6903 13.71725,0.6903 7.27881,0 11.91821,0.3893 11.91821,1 0,0.6143 -4.72464,0.9854 -12.25,0.962 -10.09958,-0.031 -12.50757,-0.3281 -13.71724,-1.6904 z m 148.96715,0.7284 c 0,-0.6481 12.6667,-1 36,-1 23.3333,0 36.0002,0.3519 36.0002,1 0,0.6482 -12.6669,1 -36.0002,1 -23.3333,0 -36,-0.3518 -36,-1 z m 90.0002,0 c 0,-0.6481 12.6666,-1 35.9999,-1 23.3333,0 36,0.3519 36,1 0,0.6482 -12.6667,1 -36,1 -23.3333,0 -35.9999,-0.3518 -35.9999,-1 z m 111.1999,-0.2 c -0.8904,-0.8904 -1.2,-10.8222 -1.2,-38.5 v -37.3 l -14.25,-0.1681 c -15.4398,-0.1821 -13.8212,-0.6201 3.9063,-1.0569 6.136,-0.1513 10.9469,0.063 10.691,0.475 -0.2559,0.4125 0.049,0.75 0.677,0.75 0.6283,0 0.9554,-0.5625 0.7269,-1.25 -0.5702,-1.7158 -29.363,-2.317 -31.3657,-0.6549 -1.0082,0.8367 -1.3855,0.8441 -1.3855,0.027 0,-0.6174 0.45,-1.1225 1,-1.1225 1.4964,0 1.2706,-15.3084 -0.25,-16.9467 -1,-1.0773 -1,-1.2055 0,-0.6409 0.6875,0.3881 1.25,0.2291 1.25,-0.3533 0,-1.6048 85.1926,-1.4664 86.8,0.1409 1.5366,1.5366 1.6628,17.8 0.1382,17.8 -0.6823,0 -0.9884,-3.0533 -0.8564,-8.5417 l 0.2054,-8.5418 -42.8308,0.062 c -23.5569,0.034 -43.0465,0.278 -43.3102,0.5418 -0.2638,0.2637 18.7205,0.4795 42.1871,0.4795 h 42.6667 v 8 8 h -13.9182 c -7.655,0 -14.63,0.2731 -15.5,0.6069 -1.4039,0.5388 -1.5818,4.8691 -1.5818,38.5 v 37.8931 h -10.9877 -10.9877 l -0.275,-36.75 -0.275,-36.75 -0.2373,37.25 -0.2373,37.2499 h 11.5 c 7,0 11.5,0.3913 11.5,1 0,1.4947 -22.2926,1.3074 -23.8,-0.2 z m 24.3,-0.8 c -0.3399,-0.55 -0.1415,-1 0.441,-1 0.5824,0 1.059,0.45 1.059,1 0,0.55 -0.1984,1 -0.441,1 -0.2425,0 -0.7191,-0.45 -1.059,-1 z m -430.50082,-47.5 -8.1e-4,-47 27.00081,0.2959 c 18.31264,0.2007 27.00081,-0.041 27.00081,-0.75 0,-0.5752 0.9,-1.0459 2,-1.0459 2.21329,0 2.70961,1.547 0.75,2.3377 -0.6875,0.2775 -0.2375,0.54 1,0.5834 1.2375,0.043 2.25,-0.3711 2.25,-0.9211 0,-0.55 0.49814,-1 1.10699,-1 0.60884,0 0.84797,0.675 0.53138,1.5 -0.70006,1.8244 0.47495,1.9516 2.30881,0.25 1.09285,-1.014 1.24487,-0.9559 0.80524,0.3076 -0.37726,1.0842 0.78239,2.2601 3.81609,3.8694 2.39692,1.2716 5.05994,3.3832 5.91782,4.6925 0.85788,1.3093 2.08541,2.3805 2.72785,2.3805 0.64244,0 0.29457,-0.6607 -0.77305,-1.4682 -1.06762,-0.8075 -1.53389,-1.4825 -1.03614,-1.5 0.49774,-0.018 0.0477,-1.0443 -1,-2.2818 l -1.90499,-2.25 2.22642,1.8837 c 1.22453,1.036 2.01461,2.2263 1.75574,2.6452 -0.25887,0.4188 0.25242,1.039 1.13621,1.3782 1.18511,0.4547 1.32583,0.9552 0.5361,1.9068 -0.58892,0.7096 -0.80217,2.3173 -0.47388,3.5727 0.43441,1.6612 0.81653,1.9271 1.40377,0.9769 0.44379,-0.718 1.13886,-0.9736 1.5446,-0.5678 0.40574,0.4057 0.20521,1.2702 -0.44563,1.921 -1.43309,1.4331 -1.59413,11.7833 -0.18333,11.7833 0.55,0 1,0.4982 1,1.107 0,0.6089 -0.6001,0.8767 -1.33356,0.5953 -0.83827,-0.3217 -1.78643,0.7406 -2.55293,2.8604 -0.67066,1.8546 -2.99556,4.8924 -5.16645,6.7506 -2.17088,1.8582 -3.94017,3.7854 -3.93175,4.2827 0.008,0.4972 0.45153,0.229 0.98469,-0.596 0.53316,-0.825 0.97627,-1.0125 0.98469,-0.4166 0.027,1.9101 -1.25634,2.4353 -2.82991,1.1579 -1.28229,-1.0408 -1.42333,-0.9587 -0.8734,0.5087 0.36075,0.9626 0.1897,1.75 -0.38015,1.75 -0.60128,0 -0.75296,0.8918 -0.36148,2.1253 0.4539,1.4301 0.31241,1.9014 -0.43262,1.4409 -0.60892,-0.3763 -1.10713,-1.3592 -1.10713,-2.1842 0,-0.8792 -0.47782,-1.2047 -1.15451,-0.7865 -0.72104,0.4456 -0.88282,0.2739 -0.4309,-0.4573 0.39798,-0.6439 1.14251,-0.9119 1.65451,-0.5955 0.51199,0.3165 0.9309,0.099 0.9309,-0.4837 0,-0.5824 -0.3949,-1.059 -0.87756,-1.059 -1.03699,0 -3.5842,2.8839 -3.01494,3.4135 1.69865,1.5802 10.04012,7.5865 10.53601,7.5865 0.34441,0 -0.55948,-0.9326 -2.00865,-2.0726 -1.44917,-1.1399 -2.63486,-2.5741 -2.63486,-3.187 0,-0.613 1.35297,0.1817 3.00659,1.7659 1.84993,1.7724 2.64941,3.2377 2.07815,3.809 -1.33547,1.3355 -0.18092,3.6589 1.49802,3.0146 0.77948,-0.2991 1.41724,-0.046 1.41724,0.5631 0,0.6089 -0.45,1.107 -1,1.107 -0.55,0 -1,0.4359 -1,0.9686 0,0.5328 0.675,0.7096 1.5,0.3931 0.825,-0.3166 1.5,-0.078 1.5,0.5313 0,0.6089 -0.45,1.107 -1,1.107 -0.55,0 -0.96447,1.0125 -0.92105,2.25 0.0434,1.2375 0.30592,1.6875 0.58333,1 0.70258,-1.7411 2.33772,-1.5663 2.33772,0.25 0,0.825 -0.45,1.5 -1,1.5 -0.55,0 -0.96447,1.2375 -0.92105,2.75 0.0434,1.5125 0.30592,2.1875 0.58333,1.5 0.70258,-1.7411 2.33772,-1.5663 2.33772,0.25 0,0.825 -0.50751,1.5 -1.12781,1.5 -1.41263,0 -0.48458,6.429 1.72535,11.9522 1.15141,2.8777 2.0125,3.7799 3.2357,3.3902 1.42966,-0.4555 1.45338,-0.3775 0.16676,0.548 -0.86514,0.6223 -6.4394,1.0855 -13.17054,1.0943 l -11.67055,0.015 -0.64638,-2.9429 c -0.44038,-2.0051 -1.10308,-2.7677 -2.07945,-2.393 -0.78819,0.3024 -1.43308,0.052 -1.43308,-0.5571 0,-0.6088 0.45,-1.107 1,-1.107 0.55,0 1,-0.6609 1,-1.4686 0,-0.8946 -0.58629,-1.2436 -1.5,-0.893 -0.825,0.3166 -1.5,0.078 -1.5,-0.5314 0,-0.6088 0.45,-1.107 1,-1.107 0.55,0 0.99311,-1.2375 0.98469,-2.75 -0.0116,-2.0864 -0.2398,-2.395 -0.94563,-1.2789 -0.51167,0.809 -1.27525,1.1261 -1.69683,0.7045 -0.42159,-0.4216 -0.22105,-1.64 0.44562,-2.7075 0.66668,-1.0675 1.17662,-2.7346 1.1332,-3.7045 -0.0468,-1.0464 -0.28406,-1.2553 -0.58333,-0.5136 -0.70258,1.7412 -2.33772,1.5663 -2.33772,-0.25 0,-0.825 0.45,-1.5 1,-1.5 0.55,0 1,-0.4359 1,-0.9686 0,-0.5327 -0.675,-0.7096 -1.5,-0.393 -0.825,0.3166 -1.5,0.078 -1.5,-0.5314 0,-0.6088 0.45,-1.107 1,-1.107 2.01199,0 0.90699,-2.3283 -2.92242,-6.1577 l -3.92241,-3.9224 -8.74689,0.2901 c -5.89193,0.1953 -8.88202,0.698 -9.16091,1.54 -0.22772,0.6875 0.10002,1.25 0.72831,1.25 0.6283,0 0.82127,-0.5195 0.42883,-1.1545 -0.39244,-0.635 -0.3065,-0.9037 0.19098,-0.5972 0.50173,0.3092 0.77422,8.2821 0.61192,17.9045 l -0.2926,17.3472 h -13.4574 -13.45741 z m 35.26456,-5.2039 c -1.22994,-0.2374 -3.47994,-0.2435 -5,-0.014 -1.52006,0.2298 -0.51375,0.4241 2.23625,0.4316 2.75,0.01 3.99369,-0.1806 2.76375,-0.418 z m -7.76375,-1.2961 c 0.33992,-0.55 3.96648,-1 8.05902,-1 4.29399,0 7.44098,0.423 7.44098,1 0,0.55 0.9551,1 2.12244,1 1.77324,0 1.91763,-0.2468 0.87756,-1.5 -1.41718,-1.7076 0.0323,-2.0677 1.6821,-0.4179 1.31538,1.3154 4.38304,-0.3555 6.30607,-3.4347 0.92893,-1.4875 0.9699,-2.1614 0.14807,-2.4353 -1.35117,-0.4504 -1.53996,-3.2121 -0.21957,-3.2121 0.50416,0 1.14364,0.5625 1.42105,1.25 0.27741,0.6875 0.53302,-0.325 0.56802,-2.25 0.0776,-4.2696 -1.1832,-6.5401 -3.04394,-5.4814 -1.09181,0.6212 -1.11668,0.5105 -0.12545,-0.5582 0.98768,-1.065 0.90623,-1.6978 -0.40499,-3.1467 -1.83137,-2.0237 -3.33136,-2.3634 -3.33136,-0.7547 0,0.5825 0.51953,0.738 1.15451,0.3455 0.6991,-0.432 0.8837,-0.2753 0.46797,0.3973 -0.955,1.5453 -3.85716,0.2522 -3.21134,-1.4308 0.29846,-0.7778 -0.10937,-1.371 -0.94252,-1.371 -0.80774,0 -1.46862,0.45 -1.46862,1 0,0.5926 -3.66667,1 -9,1 h -9 v 9.441 c 0,5.2153 -0.44759,9.7176 -1,10.059 -0.55,0.3399 -1,1.0415 -1,1.559 0,1.2468 1.71808,1.2062 2.5,-0.059 z m 21.5,-1.6866 c 0,-1.113 3.83815,-4.8743 4.31029,-4.2239 0.16392,0.2258 -0.73884,1.4943 -2.00613,2.8189 -1.26729,1.3247 -2.30416,1.9569 -2.30416,1.405 z m 4,-12.3134 c 0,-0.55 0.45,-1 1,-1 0.55,0 1,0.45 1,1 0,0.55 -0.45,1 -1,1 -0.55,0 -1,-0.45 -1,-1 z m -2,-5 c 0,-0.55 0.19844,-1 0.44098,-1 0.24254,0 0.7191,0.45 1.05902,1 0.33992,0.55 0.14148,1 -0.44098,1 -0.58246,0 -1.05902,-0.45 -1.05902,-1 z m -24,-2.7992 c 0,-0.4395 1.4625,-0.6402 3.25,-0.4459 1.7875,0.1943 5.725,-0.078 8.75,-0.6045 5.21517,-0.9082 5.01221,-0.9498 -3.91911,-0.8041 -6.53314,0.1066 -9.54603,0.5367 -9.83333,1.4037 -0.22783,0.6875 0.0733,1.25 0.66911,1.25 0.59583,0 1.08333,-0.3596 1.08333,-0.7992 z m 129.03031,75.2042 c -0.042,-1.4995 3.8236,-4.8844 4.6424,-4.0655 0.3633,0.3633 0.109,0.6605 -0.5651,0.6605 -0.6742,0 -0.9046,0.5196 -0.5122,1.1545 0.4278,0.6922 0.2758,0.884 -0.3795,0.479 -0.6012,-0.3715 -1.557,0.1214 -2.1241,1.0955 -0.5671,0.9741 -1.0447,1.2783 -1.0615,0.676 z m 46.9696,-47.262 c 0,-42.7725 0.1531,-47.2982 1.5818,-46.75 0.87,0.3339 17.07,0.607 36,0.607 h 34.4183 v 8 8 h -22.9411 c -15.1693,0 -23.1643,0.3613 -23.6001,1.0666 -0.8465,1.3696 0.4219,2.6937 1.3455,1.4045 0.4337,-0.6055 8.9778,-0.7717 22.6956,-0.4416 l 22.0001,0.5295 -22.2501,0.2205 -22.25,0.2205 v 8 c 0,4.9639 0.4019,8 1.059,8 0.5825,0 0.7512,0.4981 0.375,1.1068 -0.4788,0.7747 -0.9302,0.7084 -1.5046,-0.2211 -0.4514,-0.7302 -1.1526,-0.9958 -1.5584,-0.59 -2.056,2.056 2.9114,2.6385 23.1428,2.7137 15.7598,0.059 21.9085,-0.2354 21.7115,-1.0382 -0.1511,-0.6159 0.1864,-0.8348 0.75,-0.4865 0.5724,0.3538 1.0253,4.4701 1.0258,9.3243 v 8.691 l -21.7512,-0.046 -21.751,-0.046 20.75,0.3163 c 12.6709,0.1931 20.7501,0.6978 20.7501,1.2963 0,1.4967 -41.2796,1.3006 -42.7834,-0.2032 -0.6509,-0.6509 -1.4984,-0.8684 -1.8834,-0.4834 -0.385,0.385 -0.1675,1.2325 0.4834,1.8834 0.7088,0.7088 1.1833,4.311 1.1833,8.9833 0,4.8231 0.4042,7.8 1.059,7.8 0.5825,0 0.7251,0.5403 0.3169,1.2008 -0.5774,0.9343 -0.8309,0.9343 -1.1423,0 -0.2202,-0.6605 -0.8503,-1.2008 -1.4003,-1.2008 -0.55,0 -0.8131,0.5625 -0.5846,1.25 0.6224,1.8732 48.7541,2.8022 48.7526,0.941 -6e-4,-0.72 0.4489,-1.0309 0.9989,-0.691 0.55,0.3399 1,4.529 1,9.309 v 8.691 h -38.0002 -38 v -47.357 z m 90.0002,0 c 0,-42.7725 0.1531,-47.2982 1.5818,-46.75 0.87,0.3339 17.0699,0.607 35.9999,0.607 h 34.4182 v 8 8 h -22.941 c -15.1693,0 -23.1643,0.3613 -23.6001,1.0666 -0.8465,1.3696 0.4219,2.6937 1.3455,1.4045 0.4337,-0.6055 8.9778,-0.7717 22.6956,-0.4416 l 22,0.5295 -22.25,0.2205 -22.25,0.2205 v 8 c 0,4.9639 0.4019,8 1.059,8 0.5825,0 0.7512,0.4981 0.375,1.1068 -0.4788,0.7747 -0.9302,0.7084 -1.5046,-0.2211 -0.4514,-0.7302 -1.1526,-0.9958 -1.5584,-0.59 -2.056,2.056 2.9114,2.6385 23.1428,2.7137 15.7597,0.059 21.9084,-0.2354 21.7114,-1.0382 -0.1511,-0.6159 0.1864,-0.8348 0.75,-0.4865 0.5724,0.3538 1.0253,4.4701 1.0258,9.3243 v 8.691 l -21.7511,-0.046 -21.751,-0.046 20.75,0.3163 c 12.6709,0.1931 20.75,0.6978 20.75,1.2963 0,1.4967 -41.2795,1.3006 -42.7833,-0.2032 -0.6509,-0.6509 -1.4984,-0.8684 -1.8834,-0.4834 -0.385,0.385 -0.1675,1.2325 0.4834,1.8834 0.7088,0.7088 1.1833,4.311 1.1833,8.9833 0,4.8231 0.4042,7.8 1.059,7.8 0.5825,0 0.7251,0.5403 0.3169,1.2008 -0.5774,0.9343 -0.8309,0.9343 -1.1423,0 -0.2202,-0.6605 -0.8503,-1.2008 -1.4003,-1.2008 -0.55,0 -0.8131,0.5625 -0.5846,1.25 0.6224,1.8732 48.7539,2.8022 48.7524,0.941 -6e-4,-0.72 0.4489,-1.0309 0.9989,-0.691 0.55,0.3399 1,4.529 1,9.309 v 8.691 h -38 -37.9999 v -47.357 z m -331.00011,45.9161 c 0,-0.5825 0.45,-1.0591 1,-1.0591 0.55,0 1,0.1985 1,0.441 0,0.2426 -0.45,0.7191 -1,1.059 -0.55,0.34 -1,0.1415 -1,-0.4409 z m 92,-1 c 0,-0.5825 0.45,-1.0591 1,-1.0591 0.55,0 1,0.1985 1,0.441 0,0.2426 -0.45,0.7191 -1,1.059 -0.55,0.34 -1,0.1415 -1,-0.4409 z m 58.66667,0.2743 c -0.36667,-0.3667 -0.66667,-1.1317 -0.66667,-1.7 0,-0.6266 0.46577,-0.5676 1.18333,0.15 0.65084,0.6508 0.95084,1.4158 0.66667,1.7 -0.28417,0.2841 -0.81667,0.2166 -1.18333,-0.15 z m -151.66667,-2.2743 c 0,-0.5825 0.45,-1.0591 1,-1.0591 0.55,0 1,0.1985 1,0.441 0,0.2426 -0.45,0.7191 -1,1.059 -0.55,0.34 -1,0.1415 -1,-0.4409 z m 145.02281,-3.9919 c -2.46246,-2.5119 -4.26246,-4.6961 -4,-4.8536 0.26245,-0.1576 -0.19781,-0.7543 -1.02281,-1.3262 -1.33333,-0.9241 -1.33333,-0.9941 0,-0.6302 0.825,0.2253 1.29463,0.597 1.04361,0.8262 -0.25101,0.2291 1.77022,2.5204 4.49163,5.0917 2.72141,2.5713 4.72678,4.8515 4.45639,5.0671 -0.2704,0.2157 -2.50637,-1.6631 -4.96882,-4.175 z m -214.02281,2.9328 c 0,-0.55 0.19844,-1 0.44098,-1 0.24254,0 0.7191,0.45 1.05902,1 0.33992,0.55 0.14148,1 -0.44098,1 -0.58246,0 -1.05902,-0.45 -1.05902,-1 z m 187,-0.4409 c 0,-0.2426 0.45,-0.7191 1,-1.0591 0.55,-0.3399 1,-0.1414 1,0.441 0,0.5825 -0.45,1.059 -1,1.059 -0.55,0 -1,-0.1984 -1,-0.4409 z m 82.51461,-2.5353 c -0.3648,-0.5903 -0.2924,-1.0089 0.161,-0.9301 2.0217,0.3512 2.6971,-0.2065 1.3243,-1.0937 -1.2819,-0.8284 -1.2455,-0.9716 0.25,-0.9846 2.1116,-0.019 2.2665,1.3111 0.3391,2.9108 -0.9896,0.8213 -1.6091,0.8504 -2.0744,0.098 z m -83.51461,-1.0238 c 0,-0.55 0.45,-1 1,-1 0.55,0 1,0.45 1,1 0,0.55 -0.45,1 -1,1 -0.55,0 -1,-0.45 -1,-1 z m -1,-4 c 0,-0.55 0.45,-1 1,-1 0.55,0 1,0.45 1,1 0,0.55 -0.45,1 -1,1 -0.55,0 -1,-0.45 -1,-1 z m -92,-0.4409 c 0,-0.2426 0.45,-0.7191 1,-1.0591 0.55,-0.3399 1,-0.1414 1,0.441 0,0.5825 -0.45,1.059 -1,1.059 -0.55,0 -1,-0.1984 -1,-0.4409 z m -89,-2.5591 c 0,-0.55 0.19844,-1 0.44098,-1 0.24254,0 0.7191,0.45 1.05902,1 0.33992,0.55 0.14148,1 -0.44098,1 -0.58246,0 -1.05902,-0.45 -1.05902,-1 z m 252.99991,0 c 0,-0.55 0.45,-1 1,-1 0.55,0 1,0.45 1,1 0,0.55 -0.45,1 -1,1 -0.55,0 -1,-0.45 -1,-1 z m 3,-0.9409 c 0,-0.5176 0.4449,-1.216 0.9886,-1.552 0.5668,-0.3503 0.7345,0.051 0.393,0.941 -0.6648,1.7324 -1.3816,2.0494 -1.3816,0.611 z m -24.84283,-3.8091 c -1.8386,-1.7875 -2.93529,-3.25 -2.43709,-3.25 1.03943,0 6.85406,5.8451 6.20706,6.2396 -0.2349,0.1433 -1.93136,-1.2021 -3.76997,-2.9896 z m 28.84283,1.25 c 0.6847,-0.825 1.4699,-1.5 1.7449,-1.5 0.275,0 -0.06,0.675 -0.7449,1.5 -0.6847,0.825 -1.4699,1.5 -1.7449,1.5 -0.275,0 0.06,-0.675 0.7449,-1.5 z m 1.7334,-3.624 c 0.6783,-0.6835 1.4852,-0.9907 1.7931,-0.6828 0.3079,0.3079 -0.2471,0.867 -1.2333,1.2426 -1.4252,0.5426 -1.5401,0.4278 -0.5598,-0.5598 z m -176.73331,-1.3169 c 0,-0.2426 0.45,-0.7191 1,-1.0591 0.55,-0.3399 1,-0.1414 1,0.441 0,0.5825 -0.45,1.059 -1,1.059 -0.55,0 -1,-0.1984 -1,-0.4409 z m -81,-2.5591 c 0,-0.55 0.45,-1 1,-1 0.55,0 1,0.45 1,1 0,0.55 -0.45,1 -1,1 -0.55,0 -1,-0.45 -1,-1 z m 259.99991,-0.9409 c 0,-0.5176 0.45,-1.2191 1,-1.5591 0.55,-0.3399 1,0.083 1,0.941 0,0.8575 -0.45,1.559 -1,1.559 -0.55,0 -1,-0.4234 -1,-0.9409 z m -114.50546,-3.0652 c -2.67346,-2.9541 -1.24222,-3.4187 1.50925,-0.4899 1.28971,1.3728 1.88623,2.496 1.3256,2.496 -0.56063,0 -1.83631,-0.9027 -2.83485,-2.0061 z m -4.49445,-2.9939 c 0,-0.55 0.45,-1 1,-1 0.55,0 1,0.45 1,1 0,0.55 -0.45,1 -1,1 -0.55,0 -1,-0.45 -1,-1 z m -64,-1.4409 c 0,-0.2426 0.45,-0.7191 1,-1.0591 0.55,-0.3399 1,-0.1414 1,0.441 0,0.5825 -0.45,1.059 -1,1.059 -0.55,0 -1,-0.1984 -1,-0.4409 z m -72,-5.5591 c 0,-0.55 0.19844,-1 0.44098,-1 0.24254,0 0.7191,0.45 1.05902,1 0.33992,0.55 0.14148,1 -0.44098,1 -0.58246,0 -1.05902,-0.45 -1.05902,-1 z m 187,-4.559 c 0,-2.7847 0.38919,-4.3185 1,-3.941 0.55,0.34 1,2.3915 1,4.5591 0,2.1675 -0.45,3.9409 -1,3.9409 -0.55,0 -1,-2.0515 -1,-4.559 z m -119,-1.441 c 0,-0.55 0.45,-1 1,-1 0.55,0 1,0.45 1,1 0,0.55 -0.45,1 -1,1 -0.55,0 -1,-0.45 -1,-1 z m 98,-1.7846 c 0,-1.0583 5.84933,-6.7212 6.34463,-6.1425 0.20102,0.235 -1.14428,1.9024 -2.98957,3.7054 -1.84528,1.8031 -3.35506,2.8998 -3.35506,2.4371 z m -162,-3.2154 c 0,-0.55 0.19844,-1 0.44098,-1 0.24254,0 0.7191,0.45 1.05902,1 0.33992,0.55 0.14148,1 -0.44098,1 -0.58246,0 -1.05902,-0.45 -1.05902,-1 z m 211,-7 c 0,-0.55 0.45,-1 1,-1 0.55,0 1,0.45 1,1 0,0.55 -0.45,1 -1,1 -0.55,0 -1,-0.45 -1,-1 z m -152,-1.4409 c 0,-0.2426 0.45,-0.7191 1,-1.0591 0.55,-0.3399 1,-0.1414 1,0.441 0,0.5825 -0.45,1.059 -1,1.059 -0.55,0 -1,-0.1984 -1,-0.4409 z m -55,-2.5591 c 0,-0.55 0.19844,-1 0.44098,-1 0.24254,0 0.7191,0.45 1.05902,1 0.33992,0.55 0.14148,1 -0.44098,1 -0.58246,0 -1.05902,-0.45 -1.05902,-1 z m 182,-2 c 0,-0.55 0.45,-1 1,-1 0.55,0 1,0.45 1,1 0,0.55 -0.45,1 -1,1 -0.55,0 -1,-0.45 -1,-1 z m -15,-3.5 c 0,-1.375 0.45,-2.5 1,-2.5 0.55,0 1,1.125 1,2.5 0,1.375 -0.45,2.5 -1,2.5 -0.55,0 -1,-1.125 -1,-2.5 z m 43,1.107 c 0,-0.2161 0.69837,-0.661 1.55194,-0.9885 0.88992,-0.3415 1.29132,-0.1739 0.94098,0.393 -0.58726,0.9502 -2.49292,1.4054 -2.49292,0.5955 z m 4.46593,-5.5714 c 1.56207,-1.6304 3.18282,-2.7526 3.60172,-2.4938 0.4188,0.2589 0.9499,0.1304 1.1802,-0.2855 0.2304,-0.416 0.3438,-0.3063 0.2521,0.2437 -0.092,0.55 -0.5791,0.9699 -1.0833,0.933 -0.5042,-0.037 -1.7368,0.9756 -2.73923,2.25 -1.00242,1.2744 -2.32411,2.317 -2.93709,2.317 -0.61298,0 0.16354,-1.334 1.7256,-2.9644 z m -163.46593,1.5235 c 0,-0.2426 0.45,-0.7191 1,-1.0591 0.55,-0.3399 1,-0.1414 1,0.441 0,0.5825 -0.45,1.059 -1,1.059 -0.55,0 -1,-0.1984 -1,-0.4409 z m 192.02651,-2.0271 c -0.6701,-0.8074 -1.6815,-1.3699 -2.2475,-1.25 -0.566,0.1199 -1.1228,-0.232 -1.2374,-0.782 -0.1146,-0.55 -0.02,-0.6597 0.2104,-0.2437 0.2303,0.4159 0.7702,0.539 1.1997,0.2736 0.4295,-0.2655 1.5858,0.4067 2.5696,1.4937 0.9837,1.0871 1.549,1.9764 1.2561,1.9764 -0.2929,0 -1.0808,-0.6606 -1.7509,-1.468 z m -337.02651,-0.546 -14.5,-0.5141 14.5,-0.4859 c 7.975,-0.2673 14.87671,-0.1992 15.33713,0.1512 1.60266,1.2197 -0.92617,1.3597 -15.33713,0.8488 z m 98,0.014 c 0,-0.55 0.45,-1 1,-1 0.55,0 1,0.45 1,1 0,0.55 -0.45,1 -1,1 -0.55,0 -1,-0.45 -1,-1 z m 514.55001,-0.75 c 0.5225,-0.4125 7.475,-0.5007 15.45,-0.1961 l 14.5,0.554 -15.45,0.196 c -8.4975,0.1079 -15.0225,-0.1414 -14.5,-0.5539 z m -155.6332,-0.6622 c -0.8416,-0.8324 0.2605,-17.5878 1.1568,-17.5878 0.5096,0 0.9265,3.6 0.9265,8 0,4.9638 -0.4019,8 -1.059,8 -0.5825,0 -0.7809,0.45 -0.441,1 0.6116,0.9896 0.2209,1.3833 -0.5833,0.5878 z m 89.9999,0 c -0.8416,-0.8324 0.2605,-17.5878 1.1568,-17.5878 0.5096,0 0.9265,3.6 0.9265,8 0,4.9638 -0.4019,8 -1.059,8 -0.5825,0 -0.7809,0.45 -0.441,1 0.6116,0.9896 0.2209,1.3833 -0.5833,0.5878 z m -447.91671,-1.5878 c 0,-0.55 0.19844,-1 0.44098,-1 0.24254,0 0.7191,0.45 1.05902,1 0.33992,0.55 0.14148,1 -0.44098,1 -0.58246,0 -1.05902,-0.45 -1.05902,-1 z m 230.99991,0.559 c 0,-0.2426 0.45,-0.7191 1,-1.059 0.55,-0.34 1,-0.1415 1,0.4409 0,0.5825 -0.45,1.0591 -1,1.0591 -0.55,0 -1,-0.1985 -1,-0.441 z m -45.99991,-2.414 c 1.375,-1.1553 2.08406,-2.1106 1.57569,-2.1228 -0.50838,-0.012 0.11954,-1.1334 1.39536,-2.4914 1.27582,-1.3581 2.68168,-2.2455 3.12414,-1.972 0.44245,0.2734 1.3135,-0.454 1.93566,-1.6165 0.62215,-1.1625 1.39197,-1.8529 1.71071,-1.5341 0.7696,0.7696 -2.80021,4.6735 -3.74156,4.0918 -0.89159,-0.5511 -3.92862,2.6505 -3.67874,3.878 0.0983,0.4829 -0.94626,1.5506 -2.32126,2.3727 l -2.5,1.4948 z m -25,0.414 c 0,-0.2426 0.45,-0.7191 1,-1.059 0.55,-0.34 1,-0.1415 1,0.4409 0,0.5825 -0.45,1.0591 -1,1.0591 -0.55,0 -1,-0.1985 -1,-0.441 z m 101.49991,-1.559 c -0.3399,-0.55 -0.168,-1 0.382,-1 0.55,0 1.2781,0.45 1.618,1 0.3399,0.55 0.168,1 -0.382,1 -0.55,0 -1.2781,-0.45 -1.618,-1 z m -219.49991,-2.441 c 0,-0.2426 0.45,-0.7191 1,-1.059 0.55,-0.34 1,-0.1415 1,0.4409 0,0.5825 -0.45,1.0591 -1,1.0591 -0.55,0 -1,-0.1985 -1,-0.441 z m 217.23011,-1.1103 c -1.9257,-1.3489 -4.9066,-5.4487 -3.9616,-5.4487 0.1865,0 1.8656,1.575 3.7314,3.5 3.6622,3.7784 3.7361,4.4043 0.2302,1.9487 z m -255.23011,-4.4487 c 0,-0.55 0.19844,-1 0.44098,-1 0.24254,0 0.7191,0.45 1.05902,1 0.33992,0.55 0.14148,1 -0.44098,1 -0.58246,0 -1.05902,-0.45 -1.05902,-1 z m 148.45888,-0.067 c -0.36253,-0.5866 -0.44468,-1.281 -0.18255,-1.5432 0.26212,-0.2621 0.74306,0.2178 1.06875,1.0666 0.67618,1.7621 0.0998,2.072 -0.8862,0.4766 z m 43.54112,-0.8155 c 0,-0.55 0.45,-1.2781 1,-1.618 0.55,-0.34 1,-0.1681 1,0.3819 0,0.55 -0.45,1.2781 -1,1.6181 -0.55,0.3399 -1,0.168 -1,-0.382 z m 56.66661,0.2153 c -0.3667,-0.3667 -0.6667,-1.1317 -0.6667,-1.7 0,-0.6266 0.4658,-0.5676 1.1834,0.15 0.6508,0.6508 0.9508,1.4158 0.6666,1.7 -0.2841,0.2842 -0.8166,0.2167 -1.1833,-0.15 z m -323.41661,-5.0831 c -27.67413,-0.1737 -43.25,-0.6278 -43.25,-1.2609 0,-0.6371 15.30778,-0.9893 43,-0.9893 29.59754,0 43,0.33 43,1.059 0,0.5824 0.45,0.7809 1,0.441 0.55,-0.34 1,-0.1415 1,0.4409 0,0.5825 -0.3375,0.9515 -0.75,0.82 -0.4125,-0.1315 -20.2125,-0.3613 -44,-0.5107 z m 313.74991,-0.1912 c 0,-0.5825 0.45,-1.059 1,-1.059 0.55,0 1,0.1984 1,0.4409 0,0.2426 -0.45,0.7191 -1,1.0591 -0.55,0.3399 -1,0.1414 -1,-0.441 z m -158.99991,-1.059 c 0,-0.6384 8.51967,-1 23.55902,-1 15.45136,0 23.34632,0.3441 22.94098,1 -0.38296,0.6196 -9.34372,1 -23.55902,1 -14.62732,0 -22.94098,-0.3624 -22.94098,-1 z m 202.99991,0.022 c 0,-1.3493 70.6375,-1.4182 71.471,-0.07 0.3685,0.5963 -12.8872,0.9787 -35.4412,1.0223 -23.9241,0.046 -36.0298,-0.2738 -36.0298,-0.9527 z m 90.0002,0 c 0,-1.3493 70.6372,-1.4182 71.4707,-0.07 0.3685,0.5963 -12.887,0.9787 -35.441,1.0223 -23.9241,0.046 -36.0297,-0.2738 -36.0297,-0.9527 z m -157.50016,-2.0224 c -0.3837,-0.6209 1.4896,-1 4.941,-1 3.0575,0 5.559,0.45 5.559,1 0,0.55 -2.2234,1 -4.941,1 -2.7175,0 -5.2191,-0.45 -5.559,-1 z"
     id="path3788"
     inkscape:connector-curvature="0" />
</svg>
